<svg width="48" height="48"
    xmlns="http://www.w3.org/2000/svg" version="1.1">

    <g>
        <title>Layer 1</title>
        <g stroke="null" fill-rule="evenodd" fill="none" id="Axure_logo_400">
            <g stroke="null" id="Group-18">
                <path stroke="null" fill="#74BB11" id="Fill-12" d="m41.52995,5.01729l0,-0.00043c-0.36076,-0.66967 -1.13426,-1.0694 -2.06957,-1.0694l-3.61259,0c-1.04914,0 -1.83401,0.36911 -2.24724,1.03361l-5.35406,6.83254l4.68747,5.59885l8.18376,-10.25291c0.8982,-0.95297 0.58742,-1.81583 0.41223,-2.14226"/>
                <path stroke="null" fill="#009CD9" id="Fill-14" d="m13.30174,4.90379l-0.00495,-0.00646c-0.81605,-0.94996 -1.9023,-0.94996 -2.2596,-0.94996l-3.53342,0c-0.90513,0 -1.64645,0.36308 -2.03394,0.99567c-0.39838,0.64768 -0.31425,1.42644 0.23704,2.14743l13.09046,15.84873l-15.05264,18.33639c-0.52605,0.6895 -0.59979,1.4562 -0.2024,2.10345c0.38947,0.63258 1.13129,0.99481 2.03493,0.99481l3.61259,0c0.92888,0 1.74543,-0.42087 2.15419,-1.0845l16.84854,-20.27727l-14.89082,-18.10828z"/>
                <path stroke="null" fill="#EB2084" id="Fill-16" d="m43.3268,41.43569l-10.50226,-12.58791l-4.61966,5.56219l8.30599,9.68112l0.21577,0.08236c0.35829,0.13497 0.70075,0.20008 1.04765,0.20008l3.53242,0c0.85317,0 1.57766,-0.33117 1.98791,-0.90942c0.42015,-0.59249 0.43203,-1.33158 0.03217,-2.02842"/>
            </g>
        </g>
    </g>
</svg>