<svg xmlns="http://www.w3.org/2000/svg"  viewBox="0 0 48 48" width="48px" height="48px"><path fill="#74cccf" d="M44.452,27.539c-1.342,6.312-5.959,12.144-11.437,15.176c-4.237,2.345-9.392,3.158-14.037,1.788	c-2.982-0.879-5.646-2.593-8.144-4.444c-1.411-1.046-2.798-2.155-3.902-3.522c-0.999-1.237-1.746-2.662-2.325-4.141	C2.082,25.934,2.91,18.261,6.757,12.487S17.364,2.992,24.3,2.832c1.054-0.024,2.114,0.029,3.148,0.239	c1.221,0.249,2.386,0.712,3.531,1.201c2.458,1.052,4.898,2.266,6.85,4.093c1.085,1.016,1.999,2.202,2.826,3.436	c1.912,2.854,3.399,6.039,3.97,9.427C44.98,23.33,44.893,25.461,44.452,27.539z"/><path fill="#010101" d="M23.286,2.38c0.333-0.024,0.667-0.039,1.002-0.047c1.23-0.028,2.295,0.053,3.259,0.249	c1.321,0.269,2.566,0.777,3.628,1.231c2.296,0.983,4.922,2.248,6.995,4.188c0.986,0.922,1.908,2.041,2.901,3.523	c2.152,3.21,3.513,6.447,4.048,9.622c0.353,2.091,0.293,4.277-0.178,6.497l0,0c-1.324,6.226-5.911,12.313-11.683,15.509	c-4.556,2.521-9.813,3.19-14.421,1.83c-3.215-0.947-6-2.817-8.3-4.522c-1.393-1.033-2.843-2.185-3.993-3.608	c-0.954-1.181-1.74-2.579-2.402-4.274c-2.592-6.635-1.75-14.439,2.2-20.368C10.104,6.56,16.527,2.857,23.286,2.38z M43.963,27.435	c0.445-2.096,0.502-4.156,0.17-6.122c-0.511-3.034-1.821-6.139-3.891-9.232c-0.95-1.418-1.824-2.482-2.753-3.35	c-1.96-1.834-4.49-3.051-6.705-3.999c-1.017-0.435-2.205-0.922-3.434-1.171c-0.89-0.181-1.883-0.256-3.037-0.229	c-6.796,0.161-13.367,3.771-17.139,9.432s-4.576,13.114-2.1,19.449c0.624,1.598,1.359,2.909,2.248,4.009	c1.079,1.337,2.469,2.44,3.811,3.434c2.23,1.653,4.922,3.464,7.988,4.367c4.352,1.283,9.328,0.648,13.653-1.746	C38.303,39.217,42.696,33.39,43.963,27.435L43.963,27.435z"/><path fill="none" stroke="#fff" stroke-linecap="round" stroke-linejoin="round" stroke-miterlimit="10" d="M21.133,24.371 c0.218-0.588-0.327-1.254-0.95-1.333s-1.227,0.28-1.651,0.741c-0.264,0.287-0.479,0.615-0.682,0.948 c-0.354,0.581-0.685,1.218-0.663,1.898s0.525,1.388,1.205,1.401c0.528,0.01,0.976-0.378,1.324-0.775 c0.423-0.483,0.787-1.017,1.082-1.586c-0.192,0.321-0.389,0.655-0.434,1.026c-0.045,0.372,0.103,0.794,0.443,0.952 c0.262,0.122,0.581,0.061,0.829-0.089s0.438-0.375,0.621-0.6c0.847-1.042,1.641-2.192,1.875-3.514 c-0.594,1.434-1.195,2.898-1.32,4.445c0.551-1.672,1.655-3.157,3.098-4.166c0.246-0.172,0.536-0.338,0.831-0.281 c0.05,0.01,0.101,0.028,0.132,0.069c0.05,0.068,0.02,0.163-0.012,0.241c-0.32,0.802-0.56,1.635-0.715,2.484 c-0.061,0.332-0.106,0.687,0.029,0.996c0.266,0.609,1.144,0.736,1.717,0.4s0.89-0.978,1.105-1.606 c0.296-0.867,0.463-1.787,0.906-2.589c-0.58,1.256-0.683,2.725-0.286,4.05c0.025,0.084,0.055,0.172,0.123,0.228 c0.124,0.103,0.311,0.054,0.458-0.014c0.785-0.366,1.331-1.101,1.758-1.854c0.547-0.966,0.964-2.081,0.754-3.171 c-0.026-0.133-0.081-0.286-0.211-0.32c-0.158-0.042-0.293,0.12-0.365,0.267c-0.252,0.518-0.315,1.126-0.174,1.685 c0.046,0.182,0.117,0.364,0.252,0.494c0.243,0.234,0.62,0.239,0.958,0.229c0.492-0.015,1.432-0.134,1.693-0.551"/><path fill="none" stroke="#fff" stroke-linecap="round" stroke-linejoin="round" stroke-miterlimit="10" d="M37.542,24.824 c0.414-0.032,0.701-0.511,0.606-0.916c-0.095-0.405-0.487-0.694-0.898-0.757s-0.831,0.067-1.196,0.266 c-0.674,0.367-1.202,0.968-1.564,1.645c-0.255,0.477-0.435,1.019-0.36,1.554c0.075,0.536,0.46,1.053,0.993,1.149 c0.449,0.081,0.896-0.137,1.273-0.393c0.697-0.473,1.289-1.099,1.722-1.821c-0.484,0.416-0.754,1.068-0.708,1.704 s0.408,1.242,0.947,1.584"/><path fill="none" stroke="#fff" stroke-linecap="round" stroke-linejoin="round" stroke-miterlimit="10" d="M15.878,21.076 c0.404-0.202,0.872-0.758,1.002-1.427c0.062-0.321,0.008-0.653-0.045-0.976c-0.053-0.324-0.08-0.471-0.262-0.745 c-0.236-0.355-0.533-0.611-0.959-0.737c-0.696-0.251-1.461,0.089-2.078,0.496c-1.365,0.901-2.476,2.182-3.176,3.66 c-0.139,0.293-0.262,0.594-0.364,0.902c-0.446,1.349-0.47,2.835-0.068,4.198c0.101,0.344,0.23,0.681,0.412,0.99 c0.71,1.203,2.236,1.819,3.611,1.57c1.375-0.249,2.694-1.436,3.234-2.724"/></svg>