<svg width="47.99999999999999" height="47.99999999999999" xmlns="http://www.w3.org/2000/svg">

 <g>
  <title>Layer 1</title>
  <path id="svg_1" d="m41,5l-34,0l3,34l14,4l14,-4l3,-34l0,0z" fill="#0277BD"/>
  <path id="svg_2" d="m24,8l0,31.9l11.2,-3.2l2.5,-28.7l-13.7,0z" fill="#039BE5"/>
  <path id="svg_3" d="m33.1,13l-9.1,0l0,4l4.9,0l-0.3,4l-4.6,0l0,4l4.4,0l-0.3,4.5l-4.1,1.4l0,4.2l7.9,-2.6l0.7,-11.5l0,0l0.5,-8z" fill="#FFF"/>
  <path id="svg_4" d="m24,13l0,4l-8.9,0l-0.3,-4l9.2,0zm-4.6,8l0.2,4l4.4,0l0,-4l-4.6,0zm0.4,6l-4,0l0.3,5.5l7.9,2.6l0,-4.2l-4.1,-1.4l-0.1,-2.5z" fill="#EEE"/>
  <g stroke="null" id="svg_9">
   <path stroke="null" id="svg_8" d="m43.66316,38.79819c-0.89754,0.00469 -1.67487,0.22081 -2.32614,0.54352c-0.2381,-0.47734 -0.4797,-0.89728 -0.51997,-1.20945c-0.04727,-0.3643 -0.10213,-0.58218 -0.04494,-1.01617c0.05719,-0.434 0.30755,-1.04897 0.30404,-1.09524c-0.0035,-0.04627 -0.05602,-0.26707 -0.57366,-0.27117c-0.51763,-0.00351 -0.96057,0.10015 -1.01251,0.2372c-0.05194,0.13705 -0.15173,0.44571 -0.21359,0.76784c-0.09045,0.47089 -1.03352,2.15124 -1.56866,3.02977c-0.17507,-0.34321 -0.32389,-0.64543 -0.35482,-0.88439c-0.04727,-0.3643 -0.10213,-0.58218 -0.04494,-1.01617c0.05719,-0.434 0.30755,-1.04897 0.30404,-1.09524c-0.0035,-0.04627 -0.05602,-0.26707 -0.57366,-0.27117c-0.51763,-0.00351 -0.96057,0.10015 -1.01251,0.2372c-0.05194,0.13705 -0.10796,0.45742 -0.21359,0.76784c-0.10621,0.30983 -1.35915,3.11236 -1.68771,3.8392c-0.16749,0.37016 -0.3128,0.66769 -0.41551,0.87034c-0.00058,-0.00059 -0.00058,-0.00117 -0.00058,-0.00117s-0.00642,0.01347 -0.01692,0.03631c-0.08812,0.17278 -0.14006,0.26825 -0.14006,0.26825s0.00058,0.00117 0.00175,0.00351c-0.07003,0.12709 -0.14473,0.24482 -0.18149,0.24482c-0.02568,0 -0.07762,-0.33794 0.01109,-0.80181c0.18674,-0.97225 0.63435,-2.48801 0.63026,-2.54072c-0.00233,-0.02694 0.08345,-0.29109 -0.29237,-0.42931c-0.36532,-0.13412 -0.49546,0.08961 -0.52872,0.0902c-0.0321,0.00059 -0.05602,0.07907 -0.05602,0.07907s0.40675,-1.70494 -0.77616,-1.70494c-0.73998,0 -1.76474,0.81235 -2.26953,1.54856c-0.31863,0.17454 -1.00084,0.54821 -1.72389,0.94706c-0.27778,0.15345 -0.5614,0.30983 -0.83043,0.4586c-0.01809,-0.0205 -0.03677,-0.04041 -0.05544,-0.06091c-1.43502,-1.53626 -4.08679,-2.62272 -3.97475,-4.68845c0.04085,-0.75085 0.30113,-2.72814 5.09638,-5.12596c3.92806,-1.9644 7.07296,-1.42381 7.61627,-0.22608c0.77616,1.71197 -1.6807,4.89285 -5.75991,5.35204c-1.55407,0.17512 -2.37283,-0.4299 -2.5765,-0.6548c-0.21417,-0.2372 -0.24627,-0.24775 -0.32622,-0.20323c-0.13014,0.07263 -0.04785,0.28172 0,0.40647c0.12197,0.31803 0.62151,0.88205 1.47353,1.16318c0.7499,0.24716 2.57474,0.38246 4.78125,-0.47441c2.47204,-0.95936 4.40193,-3.62894 3.83469,-5.85983c-0.57657,-2.26896 -4.32548,-3.01513 -7.87363,-1.75004c-2.1143,0.7532 -4.40018,1.93512 -6.04411,3.47783c-1.9544,1.83438 -2.26603,3.43156 -2.13765,4.09866c0.45636,2.37087 3.71214,3.91475 5.01585,5.0586c-0.06419,0.03573 -0.12489,0.06911 -0.17974,0.09957c-0.65361,0.32447 -3.13556,1.62822 -3.75649,3.00518c-0.70438,1.56204 0.11205,2.68305 0.65244,2.83415c1.67428,0.46738 3.39234,-0.37367 4.31614,-1.7559c0.92322,-1.38164 0.81059,-3.18147 0.38691,-4.00261c-0.00525,-0.00996 -0.01109,-0.01991 -0.01634,-0.03046c0.16865,-0.10015 0.34081,-0.20206 0.51121,-0.3028c0.33264,-0.19621 0.65944,-0.37894 0.94248,-0.53356c-0.15873,0.43575 -0.27487,0.95877 -0.33497,1.71373c-0.0712,0.88673 0.29121,2.03293 0.76507,2.48391c0.20892,0.19855 0.45986,0.20323 0.61859,0.20323c0.55148,0 0.803,-0.46035 1.0802,-1.00504c0.33964,-0.66769 0.64135,-1.44548 0.64135,-1.44548s-0.37816,2.10028 0.65244,2.10028c0.37582,0 0.7534,-0.48905 0.92205,-0.73797c0.00058,0.00293 0.00058,0.0041 0.00058,0.0041s0.00992,-0.0164 0.02918,-0.04861c0.0391,-0.05974 0.06128,-0.09781 0.06128,-0.09781s0.00058,-0.0041 0.00175,-0.01113c0.15115,-0.26297 0.48612,-0.86272 0.988,-1.85195c0.64894,-1.27798 1.27103,-2.87925 1.27103,-2.87925s0.05777,0.39124 0.24744,1.03901c0.11146,0.3807 0.3484,0.80181 0.53572,1.20594c-0.15056,0.20968 -0.24277,0.32974 -0.24277,0.32974s0.00058,0.00234 0.00233,0.00644c-0.12022,0.16048 -0.25502,0.33326 -0.39625,0.50194c-0.51238,0.61205 -1.12222,1.31136 -1.20392,1.51284c-0.09629,0.23779 -0.07353,0.41233 0.11263,0.55348c0.13597,0.1025 0.37757,0.1189 0.63026,0.10191c0.46044,-0.03104 0.78374,-0.14584 0.94365,-0.21553c0.24919,-0.08844 0.53923,-0.22725 0.81117,-0.42814c0.50246,-0.37074 0.80534,-0.90079 0.77616,-1.60362c-0.01634,-0.38714 -0.13889,-0.77077 -0.29471,-1.13272c0.04552,-0.0656 0.09104,-0.13237 0.13714,-0.19913c0.79191,-1.16201 1.40642,-2.43881 1.40642,-2.43881s0.05777,0.39124 0.24744,1.03901c0.09571,0.3274 0.28537,0.68526 0.45577,1.0355c-0.74465,0.60736 -1.20626,1.31312 -1.36674,1.77581c-0.29646,0.85628 -0.06419,1.24401 0.37116,1.33244c0.19725,0.03983 0.4762,-0.05096 0.6857,-0.13998c0.26086,-0.08668 0.57424,-0.23135 0.8672,-0.44747c0.50246,-0.37074 0.98566,-0.88966 0.95648,-1.59191c-0.01342,-0.31979 -0.09979,-0.63723 -0.21709,-0.94179c0.63143,-0.26415 1.44844,-0.41057 2.48954,-0.28875c2.23335,0.2618 2.67104,1.66102 2.58758,2.24671c-0.08404,0.58569 -0.55206,0.90782 -0.70905,1.00504c-0.1564,0.09722 -0.20425,0.13119 -0.19141,0.20323c0.01926,0.10484 0.09162,0.10132 0.22526,0.07848c0.18383,-0.03104 1.17241,-0.47617 1.21501,-1.55735c0.05311,-1.37403 -1.25703,-2.88159 -3.57791,-2.8693zm-17.21379,5.8241c-0.73998,0.81001 -1.77291,1.11574 -2.21643,0.85804c-0.47853,-0.2782 -0.28887,-1.47067 0.61859,-2.33046c0.55323,-0.52361 1.26753,-1.00622 1.7414,-1.30316c0.10796,-0.06501 0.26611,-0.16048 0.45869,-0.27645c0.0321,-0.01816 0.05019,-0.02811 0.05019,-0.02811l-0.00058,-0.00117c0.03735,-0.02226 0.07528,-0.0451 0.11438,-0.06911c0.33089,1.22351 0.0105,2.30059 -0.76624,3.15043zm5.38934,-3.67638c-0.25736,0.6302 -0.79658,2.24319 -1.12514,2.15651c-0.28187,-0.07438 -0.45344,-1.30023 -0.05602,-2.50675c0.19958,-0.60736 0.62676,-1.33303 0.8777,-1.61475c0.40384,-0.45332 0.84852,-0.6015 0.95648,-0.4176c0.13714,0.23428 -0.49137,1.98725 -0.65302,2.38259zm4.45211,2.13191c-0.10913,0.0574 -0.2095,0.09312 -0.25561,0.0656c-0.03443,-0.0205 0.04494,-0.09605 0.04494,-0.09605s0.55673,-0.6015 0.77616,-0.87502c0.1278,-0.15931 0.27545,-0.34849 0.43652,-0.55933c0.00117,0.02108 0.00175,0.04217 0.00175,0.06267c-0.00117,0.7204 -0.69446,1.20652 -1.00375,1.40214zm3.42969,-0.78482c-0.0817,-0.05798 -0.0677,-0.24599 0.20017,-0.83227c0.10504,-0.23018 0.34548,-0.61732 0.76215,-0.98747c0.04844,0.15228 0.07762,0.29812 0.07703,0.434c-0.00525,0.90665 -0.64952,1.24518 -1.03935,1.38574z" fill="#f06292"/>
  </g>
 </g>
</svg>