<svg width="48" height="48" xmlns="http://www.w3.org/2000/svg">

 <g>
  <title>Layer 1</title>
  <path id="svg_1" d="m6,42l0,-36l36,0l0,36l-36,0z" fill="#ffd600"/>
  <path id="svg_2" d="m29.538,32.947c0.692,1.124 1.444,2.201 3.037,2.201c1.338,0 2.04,-0.665 2.04,-1.585c0,-1.101 -0.726,-1.492 -2.198,-2.133l-0.807,-0.344c-2.329,-0.988 -3.878,-2.226 -3.878,-4.841c0,-2.41 1.845,-4.244 4.728,-4.244c2.053,0 3.528,0.711 4.592,2.573l-2.514,1.607c-0.553,-0.988 -1.151,-1.377 -2.078,-1.377c-0.946,0 -1.545,0.597 -1.545,1.377c0,0.964 0.6,1.354 1.985,1.951l0.807,0.344c2.745,1.169 4.293,2.363 4.293,5.047c0,2.892 -2.284,4.477 -5.35,4.477c-2.999,0 -4.702,-1.505 -5.65,-3.368l2.538,-1.685zm-11.586,0.082c0.506,0.906 1.275,1.603 2.381,1.603c1.058,0 1.667,-0.418 1.667,-2.043l0,-10.589l3.333,0l0,11.101c0,3.367 -1.953,4.899 -4.805,4.899c-2.577,0 -4.437,-1.746 -5.195,-3.368l2.619,-1.603z" fill="#000001"/>
  <g stroke="null" id="svg_9">
   <rect stroke="null" id="svg_6" fill="#1976d2" y="-0.64334" x="0.05596" height="20.26577" width="20.96507"/>
   <polygon stroke="null" id="svg_7" points="12.570938348770142,8.363664865493774 4.847058534622192,8.363664865493774 4.847058534622192,10.201095819473267 7.617357492446899,10.201095819473267 7.617357492446899,18.49654984474182 9.812284708023071,18.49654984474182 9.812284708023071,10.201095819473267 12.570938348770142,10.201095819473267 " fill="#fff"/>
   <path stroke="null" id="svg_8" d="m19.38691,10.6627c0,0 -1.04068,-0.67102 -2.21706,-0.67102s-1.59975,0.54042 -1.59975,1.11799c0,1.49066 4.29842,1.34148 4.29842,4.34138c0,4.62116 -6.55391,2.5715 -6.55391,2.5715l0,-2.21685c0,0 1.25325,0.91309 2.75632,0.91309s1.44601,-0.95024 1.44601,-1.08084c0,-1.37864 -4.25999,-1.37864 -4.25999,-4.43483c0,-4.15505 6.20682,-2.51577 6.20682,-2.51577l-0.07687,1.97535z" fill="#fff"/>
  </g>
 </g>
</svg>